<svg width="1007" height="364" viewBox="0 0 1007 364" fill="none" xmlns="http://www.w3.org/2000/svg">
<rect x="100" y="12" width="80" height="80" rx="10" fill="#AF0000"/>
<rect y="105" width="80" height="80" rx="10" fill="#AF0000"/>
<path d="M17.568 171V168.624C19.008 168.624 20.112 168.24 20.88 167.472C21.648 166.704 22.272 165.648 22.752 164.304C23.28 162.96 23.88 161.4 24.552 159.624L39.384 119.232H41.112L57.168 160.2C57.552 161.208 57.984 162.504 58.464 164.088C58.944 165.672 59.136 167.016 59.04 168.12C59.856 168.072 60.672 168.024 61.488 167.976C62.304 167.928 63.12 167.88 63.936 167.832V171H47.448V168.624C49.272 168.576 50.472 168.168 51.048 167.4C51.624 166.632 51.84 165.72 51.696 164.664C51.552 163.608 51.312 162.648 50.976 161.784L48.456 155.016L29.736 155.448L27.216 163.152C26.88 164.304 26.568 165.216 26.28 165.888C26.04 166.56 25.752 167.304 25.416 168.12C26.376 168.072 27.312 168.024 28.224 167.976C29.184 167.928 30.12 167.88 31.032 167.832V171H17.568ZM30.816 152.352H47.448L42.336 138.6C41.808 137.112 41.256 135.648 40.68 134.208C40.152 132.72 39.624 131.232 39.096 129.744H38.952C38.472 131.088 37.968 132.432 37.44 133.776C36.96 135.12 36.456 136.488 35.928 137.88L30.816 152.352Z" fill="white"/>
<rect x="101" y="105" width="80" height="80" rx="10" fill="#AF0000"/>
<path d="M151.256 135.864C151.112 133.56 150.56 131.376 149.6 129.312C148.64 127.248 147.248 125.568 145.424 124.272C143.6 122.976 141.272 122.328 138.44 122.328C135.464 122.328 133.184 123.168 131.6 124.848C130.016 126.528 129.224 128.496 129.224 130.752C129.224 132.768 129.8 134.472 130.952 135.864C132.104 137.208 133.592 138.408 135.416 139.464C137.288 140.472 139.256 141.456 141.32 142.416C143.144 143.232 144.968 144.12 146.792 145.08C148.616 145.992 150.272 147.048 151.76 148.248C153.248 149.448 154.424 150.888 155.288 152.568C156.2 154.2 156.656 156.168 156.656 158.472C156.656 161.112 155.984 163.464 154.64 165.528C153.344 167.592 151.448 169.224 148.952 170.424C146.456 171.576 143.408 172.152 139.808 172.152C137.648 172.152 135.416 171.84 133.112 171.216C130.808 170.592 128.768 169.68 126.992 168.48L127.352 171.576H123.608L123.176 156.24H125.984C126.224 160.464 127.688 163.68 130.376 165.888C133.064 168.048 136.304 169.128 140.096 169.128C141.968 169.128 143.696 168.792 145.28 168.12C146.864 167.4 148.112 166.368 149.024 165.024C149.984 163.68 150.464 162.048 150.464 160.128C150.464 157.968 149.888 156.168 148.736 154.728C147.584 153.288 146.096 152.04 144.272 150.984C142.448 149.928 140.504 148.92 138.44 147.96C136.616 147.144 134.816 146.28 133.04 145.368C131.264 144.456 129.632 143.424 128.144 142.272C126.704 141.072 125.528 139.656 124.616 138.024C123.752 136.392 123.32 134.424 123.32 132.12C123.32 130.872 123.536 129.528 123.968 128.088C124.4 126.648 125.144 125.28 126.2 123.984C127.304 122.64 128.792 121.56 130.664 120.744C132.584 119.88 135.008 119.448 137.936 119.448C139.76 119.448 141.8 119.712 144.056 120.24C146.36 120.72 148.496 121.68 150.464 123.12L150.176 120.024H153.848V135.864H151.256Z" fill="white"/>
<rect x="198" y="12" width="80" height="80" rx="10" fill="#AF0000"/>
<path d="M245.016 59.352C245.016 57.24 244.728 55.728 244.152 54.816C243.576 53.904 242.664 53.352 241.416 53.16C240.168 52.968 238.512 52.92 236.448 53.016L231.192 53.232V69.72C231.192 71.016 231.168 72.12 231.12 73.032C231.12 73.944 231.072 74.712 230.976 75.336L244.728 75.12C246.84 75.072 248.664 74.736 250.2 74.112C251.736 73.44 252.936 72.288 253.8 70.656C254.664 69.024 255.096 66.792 255.096 63.96H257.544L257.112 78H219.96V75.624C221.784 75.528 223.032 75.12 223.704 74.4C224.376 73.632 224.736 72.6 224.784 71.304C224.88 69.96 224.928 68.448 224.928 66.768V35.664C224.928 34.704 224.952 33.792 225 32.928C225.048 32.016 225.096 31.2 225.144 30.48C224.28 30.528 223.416 30.576 222.552 30.624C221.688 30.672 220.824 30.72 219.96 30.768V27.6H254.592L254.952 40.2H252.576C252.576 37.368 252.144 35.232 251.28 33.792C250.416 32.304 249.24 31.32 247.752 30.84C246.312 30.312 244.68 30.072 242.856 30.12L236.664 30.264C234.888 30.312 233.616 30.648 232.848 31.272C232.08 31.896 231.6 32.832 231.408 34.08C231.264 35.28 231.192 36.864 231.192 38.832V50.352L244.728 50.424L244.224 44.232H247.392V59.352H245.016Z" fill="white"/>
<path d="M125.28 74.24L114.8 43.52C114.427 42.4 114.08 41.44 113.76 40.64C113.493 39.84 113.28 39.1467 113.12 38.56C112.96 37.9733 112.827 37.4667 112.72 37.04L108.48 37.28V34H125.44V36.4C123.04 36.4533 121.707 37.28 121.44 38.88C121.227 40.4267 121.547 42.48 122.4 45.04L126.08 56.24C126.507 57.52 126.933 58.8267 127.36 60.16C127.787 61.44 128.213 62.72 128.64 64C129.12 62.56 129.6 61.12 130.08 59.68C130.613 58.1867 131.12 56.6933 131.6 55.2L138.72 34H142L150.08 57.28C150.507 58.4533 150.933 59.6533 151.36 60.88C151.787 62.1067 152.213 63.3333 152.64 64.56C153.067 63.3867 153.467 62.24 153.84 61.12C154.267 59.9467 154.667 58.7733 155.04 57.6L160.32 42.4C160.693 41.3333 161.067 40.32 161.44 39.36C161.813 38.4 162.24 37.6267 162.72 37.04L158.08 37.28V34H172V36.4C170.613 36.4533 169.467 36.64 168.56 36.96C167.707 37.28 166.987 37.7067 166.4 38.24C165.813 38.7733 165.333 39.4133 164.96 40.16C164.587 40.9067 164.24 41.76 163.92 42.72L152.4 74.24H149.2L141.6 52.4C141.28 51.44 140.96 50.5067 140.64 49.6C140.32 48.64 140 47.7067 139.68 46.8C139.36 45.84 139.04 44.9067 138.72 44C138.4 44.9067 138.08 45.84 137.76 46.8C137.44 47.7067 137.12 48.64 136.8 49.6C136.48 50.5067 136.16 51.44 135.84 52.4L128.32 74.24H125.28Z" fill="white"/>
<rect x="791" y="11" width="80" height="80" rx="10" fill="#AF0000"/>
<rect x="790" y="103" width="80" height="80" rx="10" fill="#AF0000"/>
<path d="M811.96 169V166.624C813.784 166.528 815.032 166.12 815.704 165.4C816.376 164.632 816.736 163.6 816.784 162.304C816.88 160.96 816.928 159.448 816.928 157.768V126.664C816.928 125.704 816.952 124.792 817 123.928C817.048 123.016 817.096 122.2 817.144 121.48C816.28 121.528 815.416 121.576 814.552 121.624C813.688 121.672 812.824 121.72 811.96 121.768V118.6H828.16V120.976C826.384 121.024 825.136 121.432 824.416 122.2C823.744 122.968 823.36 124 823.264 125.296C823.216 126.592 823.192 128.104 823.192 129.832V141.64H828.592L837.592 127.456C838.216 126.496 838.984 125.44 839.896 124.288C840.808 123.136 841.744 122.176 842.704 121.408C841.984 121.456 841.24 121.48 840.472 121.48C839.752 121.48 839.032 121.504 838.312 121.552V118.6H853.792V120.976C851.776 121.12 849.976 121.456 848.392 121.984C846.808 122.512 845.296 123.448 843.856 124.792C842.416 126.088 840.88 128.056 839.248 130.696L832.192 141.928C833.584 142.744 834.712 143.704 835.576 144.808C836.44 145.864 837.304 146.944 838.168 148.048L846.232 158.776C848.056 161.176 849.544 162.952 850.696 164.104C851.896 165.208 852.952 165.904 853.864 166.192C854.824 166.48 855.808 166.624 856.816 166.624V169H848.032C847.552 169 846.904 168.664 846.088 167.992C845.32 167.32 844.48 166.456 843.568 165.4C842.656 164.296 841.72 163.144 840.76 161.944L832.12 150.28C831.208 149.08 830.296 147.952 829.384 146.896C828.472 145.792 827.584 144.976 826.72 144.448L823.192 144.52V160.432C823.192 161.728 823.168 162.856 823.12 163.816C823.12 164.728 823.072 165.496 822.976 166.12C823.84 166.072 824.704 166.024 825.568 165.976C826.432 165.928 827.296 165.88 828.16 165.832V169H811.96Z" fill="white"/>
<rect x="888" y="13" width="80" height="80" rx="10" fill="#AF0000"/>
<path d="M909.96 76.624C911.784 76.528 913.032 76.12 913.704 75.4C914.376 74.632 914.736 73.6 914.784 72.304C914.88 70.96 914.928 69.448 914.928 67.768V36.664C914.928 35.704 914.952 34.792 915 33.928C915.048 33.016 915.096 32.2 915.144 31.48C914.28 31.528 913.416 31.576 912.552 31.624C911.688 31.672 910.824 31.72 909.96 31.768V28.6C912.504 28.552 915.12 28.528 917.808 28.528C920.496 28.48 923.232 28.456 926.016 28.456C930.672 28.456 934.584 28.984 937.752 30.04C940.92 31.096 943.344 32.656 945.024 34.72C946.704 36.784 947.616 39.352 947.76 42.424C947.856 44.296 947.568 46.264 946.896 48.328C946.272 50.344 945.072 52.264 943.296 54.088C941.568 55.864 939.12 57.304 935.952 58.408C932.784 59.512 928.728 60.064 923.784 60.064C923.592 60.064 923.232 60.064 922.704 60.064C922.176 60.064 921.672 60.04 921.192 59.992V70.432C921.192 71.728 921.168 72.856 921.12 73.816C921.12 74.728 921.072 75.496 920.976 76.12C921.744 76.072 922.488 76.024 923.208 75.976C923.928 75.928 924.648 75.904 925.368 75.904C926.136 75.856 926.88 75.808 927.6 75.76V79H909.96V76.624ZM921.192 57.04C922.104 57.136 922.872 57.208 923.496 57.256C924.168 57.256 924.96 57.256 925.872 57.256C928.608 57.256 931.104 56.728 933.36 55.672C935.616 54.568 937.416 53.008 938.76 50.992C940.104 48.976 940.776 46.576 940.776 43.792C940.776 41.536 940.416 39.616 939.696 38.032C938.976 36.4 937.944 35.104 936.6 34.144C935.304 33.136 933.744 32.416 931.92 31.984C930.096 31.504 928.08 31.264 925.872 31.264C924.192 31.264 923.016 31.624 922.344 32.344C921.72 33.064 921.36 34.072 921.264 35.368C921.216 36.616 921.192 38.104 921.192 39.832V57.04Z" fill="white"/>
<rect x="198" y="103" width="80" height="80" rx="10" fill="#AF0000"/>
<rect x="297" y="103" width="80" height="80" rx="10" fill="#AF0000"/>
<rect x="2" y="195" width="80" height="80" rx="10" fill="#AF0000"/>
<path d="M23.096 261V257.688C25.784 253.896 29.216 249 33.392 243C37.616 236.952 42.704 229.2 48.656 219.744C49.328 218.64 50.024 217.56 50.744 216.504C51.512 215.4 52.352 214.32 53.264 213.264L34.904 213.552C32.072 213.648 29.936 214.632 28.496 216.504C27.104 218.376 26.408 221.376 26.408 225.504H23.96L24.392 210.6H60.104V213.12L34.256 252.36C33.2 253.896 32.312 255.12 31.592 256.032C30.872 256.896 30.128 257.664 29.36 258.336L46.856 258.048C50.024 258 52.664 257.04 54.776 255.168C56.936 253.248 58.016 250.272 58.016 246.24H60.464L60.032 261H23.096Z" fill="white"/>
<rect x="100" y="195" width="80" height="80" rx="10" fill="#AF0000"/>
<rect x="198" y="194" width="80" height="80" rx="10" fill="#AF0000"/>
<rect x="298" y="195" width="80" height="80" rx="10" fill="#AF0000"/>
<rect x="395" y="12" width="80" height="80" rx="10" fill="#AF0000"/>
<path d="M454.688 42.792C454.64 39.96 454.352 37.608 453.824 35.736C453.296 33.864 452.36 32.472 451.016 31.56C449.72 30.6 447.824 30.144 445.328 30.192H439.208L439.136 69.432C439.136 70.728 439.112 71.856 439.064 72.816C439.064 73.728 439.016 74.496 438.92 75.12C439.928 75.072 440.912 75.024 441.872 74.976C442.88 74.928 443.888 74.88 444.896 74.832V78H427.976V75.624C429.8 75.528 431.024 75.096 431.648 74.328C432.32 73.56 432.68 72.528 432.728 71.232C432.824 69.888 432.872 68.4 432.872 66.768L432.944 30.264L425.528 30.336C422.504 30.336 420.368 31.344 419.12 33.36C417.872 35.376 417.248 38.52 417.248 42.792H414.584L415.016 27.6H456.992L457.424 42.792H454.688Z" fill="white"/>
<rect x="296" y="12" width="80" height="80" rx="10" fill="#AF0000"/>
<path d="M317.96 78V75.624C319.784 75.528 321.032 75.12 321.704 74.4C322.376 73.632 322.736 72.6 322.784 71.304C322.88 69.96 322.928 68.448 322.928 66.768V35.664C322.928 34.704 322.952 33.792 323 32.928C323.048 32.016 323.096 31.2 323.144 30.48C322.28 30.528 321.416 30.576 320.552 30.624C319.688 30.672 318.824 30.72 317.96 30.768V27.6C320.648 27.552 323.36 27.504 326.096 27.456C328.88 27.408 331.664 27.432 334.448 27.528C339.104 27.576 342.848 28.128 345.68 29.184C348.56 30.192 350.672 31.656 352.016 33.576C353.36 35.448 354.032 37.728 354.032 40.416C354.08 42.288 353.72 44.208 352.952 46.176C352.232 48.096 350.888 49.824 348.92 51.36C347 52.896 344.216 54.048 340.568 54.816C341.528 55.488 342.368 56.352 343.088 57.408C343.808 58.464 344.624 59.688 345.536 61.08L350.432 68.784C351.248 70.08 352.04 71.256 352.808 72.312C353.576 73.32 354.464 74.136 355.472 74.76C356.48 75.336 357.728 75.624 359.216 75.624V78H350.144C348.752 76.752 347.576 75.504 346.616 74.256C345.704 73.008 344.744 71.592 343.736 70.008L338.912 62.304C338.288 61.296 337.568 60.144 336.752 58.848C335.984 57.504 335.096 56.376 334.088 55.464C333.32 55.512 332.504 55.536 331.64 55.536C330.824 55.536 330.008 55.512 329.192 55.464V69.432C329.192 70.728 329.168 71.856 329.12 72.816C329.12 73.728 329.072 74.496 328.976 75.12C329.552 75.072 330.128 75.048 330.704 75.048C331.28 75 331.856 74.952 332.432 74.904C333.008 74.856 333.584 74.832 334.16 74.832V78H317.96ZM333.656 52.8C336.296 52.704 338.6 52.272 340.568 51.504C342.584 50.736 344.168 49.512 345.32 47.832C346.472 46.152 347.048 43.944 347.048 41.208C347.048 39.384 346.784 37.8 346.256 36.456C345.776 35.064 345.008 33.912 343.952 33C342.896 32.088 341.552 31.416 339.92 30.984C338.288 30.504 336.368 30.264 334.16 30.264C332.384 30.264 331.136 30.624 330.416 31.344C329.744 32.064 329.36 33.072 329.264 34.368C329.216 35.616 329.192 37.104 329.192 38.832V52.656C329.96 52.704 330.68 52.752 331.352 52.8C332.072 52.848 332.84 52.848 333.656 52.8Z" fill="white"/>
<rect x="494" y="12" width="80" height="80" rx="10" fill="#AF0000"/>
<path d="M527.48 78V75.624C529.304 75.528 530.528 75.096 531.152 74.328C531.824 73.56 532.184 72.528 532.232 71.232C532.328 69.888 532.376 68.4 532.376 66.768L532.448 58.56L519.92 38.76C518.72 36.84 517.808 35.232 517.184 33.936C516.608 32.64 516.224 31.536 516.032 30.624C515.264 30.672 514.52 30.696 513.8 30.696C513.08 30.696 512.336 30.72 511.568 30.768V27.6H530.144V29.976C527.936 29.976 526.4 30.312 525.536 30.984C524.672 31.656 524.336 32.592 524.528 33.792C524.768 34.944 525.368 36.288 526.328 37.824L532.088 46.896C532.52 47.568 532.976 48.264 533.456 48.984C533.936 49.704 534.416 50.448 534.896 51.216C535.424 51.936 535.976 52.704 536.552 53.52H536.696C537.224 52.464 537.752 51.456 538.28 50.496C538.808 49.488 539.312 48.528 539.792 47.616L545.912 36.024C546.152 35.544 546.44 34.992 546.776 34.368C547.16 33.696 547.568 33.024 548 32.352C548.432 31.632 548.888 31.032 549.368 30.552C548.456 30.6 547.52 30.648 546.56 30.696C545.6 30.696 544.64 30.72 543.68 30.768V27.6H558.368V29.976C556.016 30.12 554.072 30.936 552.536 32.424C551.048 33.912 549.464 36.192 547.784 39.264C546.152 42.336 544.568 45.288 543.032 48.12C541.544 50.952 540.104 53.712 538.712 56.4C538.712 57.264 538.688 58.416 538.64 59.856C538.64 61.296 538.64 62.76 538.64 64.248C538.64 65.688 538.64 66.912 538.64 67.92C538.64 68.928 538.64 69.432 538.64 69.432C538.64 70.728 538.616 71.856 538.568 72.816C538.568 73.728 538.52 74.496 538.424 75.12C539.432 75.072 540.416 75.024 541.376 74.976C542.384 74.928 543.392 74.88 544.4 74.832V78H527.48Z" fill="white"/>
<rect x="395" y="103" width="80" height="80" rx="10" fill="#AF0000"/>
<rect x="494" y="103" width="80" height="80" rx="10" fill="#AF0000"/>
<rect x="593" y="12" width="80" height="80" rx="10" fill="#AF0000"/>
<rect x="692" y="12" width="80" height="80" rx="10" fill="#AF0000"/>
<path d="M741.16 28.976C739.384 29.024 738.136 29.432 737.416 30.2C736.744 30.968 736.36 32 736.264 33.296C736.216 34.592 736.192 36.104 736.192 37.832V68.432C736.192 69.728 736.168 70.856 736.12 71.816C736.12 72.728 736.072 73.496 735.976 74.12C736.84 74.072 737.704 74.024 738.568 73.976C739.432 73.928 740.296 73.88 741.16 73.832V77H724.96V74.624C726.784 74.528 728.032 74.12 728.704 73.4C729.376 72.632 729.736 71.6 729.784 70.304C729.88 68.96 729.928 67.448 729.928 65.768V34.664C729.928 33.704 729.952 32.792 730 31.928C730.048 31.016 730.096 30.2 730.144 29.48C729.28 29.528 728.416 29.576 727.552 29.624C726.688 29.672 725.824 29.72 724.96 29.768V26.6H741.16V28.976Z" fill="white"/>
<path d="M832.944 77.152C828.384 77.152 824.472 76.384 821.208 74.848C817.944 73.312 815.28 71.272 813.216 68.728C811.2 66.136 809.712 63.28 808.752 60.16C807.792 57.04 807.312 53.92 807.312 50.8C807.312 47.776 807.816 44.728 808.824 41.656C809.832 38.536 811.368 35.68 813.432 33.088C815.544 30.496 818.16 28.408 821.28 26.824C824.448 25.24 828.144 24.448 832.368 24.448C836.784 24.448 840.6 25.24 843.816 26.824C847.032 28.408 849.672 30.52 851.736 33.16C853.848 35.752 855.408 38.584 856.416 41.656C857.472 44.728 858 47.776 858 50.8C858 53.776 857.496 56.824 856.488 59.944C855.48 63.016 853.92 65.872 851.808 68.512C849.744 71.104 847.152 73.192 844.032 74.776C840.912 76.36 837.216 77.152 832.944 77.152ZM833.088 74.2C836.064 74.2 838.656 73.576 840.864 72.328C843.072 71.032 844.896 69.328 846.336 67.216C847.824 65.056 848.928 62.68 849.648 60.088C850.416 57.448 850.8 54.808 850.8 52.168C850.8 49.192 850.392 46.24 849.576 43.312C848.76 40.384 847.56 37.72 845.976 35.32C844.392 32.92 842.424 31 840.072 29.56C837.768 28.072 835.128 27.328 832.152 27.328C829.176 27.328 826.56 27.976 824.304 29.272C822.096 30.568 820.248 32.296 818.76 34.456C817.32 36.568 816.216 38.944 815.448 41.584C814.728 44.176 814.368 46.816 814.368 49.504C814.368 52.144 814.728 54.904 815.448 57.784C816.216 60.664 817.368 63.352 818.904 65.848C820.44 68.344 822.384 70.36 824.736 71.896C827.088 73.432 829.872 74.2 833.088 74.2Z" fill="white"/>
<rect x="593" y="103" width="80" height="80" rx="10" fill="#AF0000"/>
<rect x="692" y="103" width="80" height="80" rx="10" fill="#AF0000"/>
<path d="M713.96 169V166.624C715.784 166.528 717.032 166.12 717.704 165.4C718.376 164.632 718.736 163.6 718.784 162.304C718.88 160.96 718.928 159.448 718.928 157.768V126.664C718.928 125.704 718.952 124.792 719 123.928C719.048 123.016 719.096 122.2 719.144 121.48C718.28 121.528 717.416 121.576 716.552 121.624C715.688 121.672 714.824 121.72 713.96 121.768V118.6H730.16V120.976C728.384 121.024 727.136 121.432 726.416 122.2C725.744 122.968 725.36 124 725.264 125.296C725.216 126.592 725.192 128.104 725.192 129.832V141.64H730.592L739.592 127.456C740.216 126.496 740.984 125.44 741.896 124.288C742.808 123.136 743.744 122.176 744.704 121.408C743.984 121.456 743.24 121.48 742.472 121.48C741.752 121.48 741.032 121.504 740.312 121.552V118.6H755.792V120.976C753.776 121.12 751.976 121.456 750.392 121.984C748.808 122.512 747.296 123.448 745.856 124.792C744.416 126.088 742.88 128.056 741.248 130.696L734.192 141.928C735.584 142.744 736.712 143.704 737.576 144.808C738.44 145.864 739.304 146.944 740.168 148.048L748.232 158.776C750.056 161.176 751.544 162.952 752.696 164.104C753.896 165.208 754.952 165.904 755.864 166.192C756.824 166.48 757.808 166.624 758.816 166.624V169H750.032C749.552 169 748.904 168.664 748.088 167.992C747.32 167.32 746.48 166.456 745.568 165.4C744.656 164.296 743.72 163.144 742.76 161.944L734.12 150.28C733.208 149.08 732.296 147.952 731.384 146.896C730.472 145.792 729.584 144.976 728.72 144.448L725.192 144.52V160.432C725.192 161.728 725.168 162.856 725.12 163.816C725.12 164.728 725.072 165.496 724.976 166.12C725.84 166.072 726.704 166.024 727.568 165.976C728.432 165.928 729.296 165.88 730.16 165.832V169H713.96Z" fill="white"/>
<rect x="395" y="195" width="80" height="80" rx="10" fill="#AF0000"/>
<path d="M416.96 261V258.624C418.784 258.576 420.032 258.168 420.704 257.4C421.376 256.584 421.736 255.504 421.784 254.16C421.88 252.768 421.928 251.184 421.928 249.408V219.168C421.928 217.872 421.952 216.768 422 215.856C422.048 214.896 422.096 214.104 422.144 213.48C421.28 213.528 420.416 213.576 419.552 213.624C418.688 213.672 417.824 213.72 416.96 213.768V210.6C419.6 210.552 422.24 210.528 424.88 210.528C427.568 210.48 430.352 210.456 433.232 210.456C438.8 210.456 443.144 211.44 446.264 213.408C449.432 215.376 450.968 218.496 450.872 222.768C450.872 224.304 450.416 225.84 449.504 227.376C448.64 228.912 447.32 230.28 445.544 231.48C443.816 232.632 441.632 233.448 438.992 233.928V234.072C444.272 234.072 448.256 235.296 450.944 237.744C453.632 240.144 454.976 243.192 454.976 246.888C454.976 249.816 454.232 252.336 452.744 254.448C451.256 256.56 449.24 258.192 446.696 259.344C444.152 260.448 441.248 261 437.984 261H416.96ZM427.976 258.12C428.744 258.168 429.656 258.216 430.712 258.264C431.816 258.264 432.824 258.264 433.736 258.264C434.696 258.264 435.32 258.264 435.608 258.264C439.304 258.264 442.28 257.352 444.536 255.528C446.84 253.656 447.992 250.92 447.992 247.32C447.992 244.392 447.416 242.112 446.264 240.48C445.112 238.848 443.6 237.696 441.728 237.024C439.856 236.352 437.816 236.016 435.608 236.016C434.168 236.016 432.848 236.04 431.648 236.088C430.496 236.088 429.344 236.136 428.192 236.232V252.504C428.192 253.8 428.168 254.904 428.12 255.816C428.12 256.728 428.072 257.496 427.976 258.12ZM428.192 233.424L433.448 233.28C436.184 233.232 438.344 232.68 439.928 231.624C441.512 230.52 442.64 229.152 443.312 227.52C444.032 225.888 444.368 224.184 444.32 222.408C444.272 219.816 443.672 217.848 442.52 216.504C441.416 215.16 440.048 214.248 438.416 213.768C436.784 213.288 435.176 213.048 433.592 213.048C432.008 213.048 430.832 213.264 430.064 213.696C429.296 214.128 428.792 214.848 428.552 215.856C428.312 216.864 428.192 218.256 428.192 220.032V233.424Z" fill="white"/>
<rect x="494" y="195" width="80" height="80" rx="10" fill="#AF0000"/>
<rect x="593" y="195" width="80" height="80" rx="10" fill="#AF0000"/>
<rect x="692" y="195" width="80" height="80" rx="10" fill="#AF0000"/>
<rect x="888" y="103" width="80" height="80" rx="10" fill="#AF0000"/>
<path d="M909.96 169V166.624C911.784 166.528 913.032 166.12 913.704 165.4C914.376 164.632 914.736 163.6 914.784 162.304C914.88 160.96 914.928 159.448 914.928 157.768V126.664C914.928 125.704 914.952 124.792 915 123.928C915.048 123.016 915.096 122.2 915.144 121.48C914.28 121.528 913.416 121.576 912.552 121.624C911.688 121.672 910.824 121.72 909.96 121.768V118.6H926.16V120.976C924.384 121.024 923.136 121.432 922.416 122.2C921.744 122.968 921.36 124 921.264 125.296C921.216 126.592 921.192 128.104 921.192 129.832V160.72C921.192 162.016 921.168 163.12 921.12 164.032C921.12 164.944 921.072 165.712 920.976 166.336L934.44 166.12C937.464 166.072 939.744 165.112 941.28 163.24C942.864 161.368 943.656 158.32 943.656 154.096H946.104L945.672 169H909.96Z" fill="white"/>
<rect y="12" width="81" height="78" rx="10" fill="#AF0000"/>
<path d="M629.104 259.72C626.992 254.92 624.856 250.144 622.696 245.392C620.536 240.592 618.424 235.744 616.36 230.848C615.688 229.312 615.016 227.776 614.344 226.24C613.72 224.656 613.096 223.072 612.472 221.488C611.896 219.904 611.296 218.32 610.672 216.736C610.672 217.264 610.648 217.792 610.6 218.32C610.6 218.848 610.6 219.376 610.6 219.904C610.552 221.632 610.48 223.72 610.384 226.168C610.336 228.568 610.264 231.16 610.168 233.944C610.072 236.68 610 239.44 609.952 242.224C609.904 244.96 609.856 247.552 609.808 250C609.76 251.056 609.712 252.112 609.664 253.168C609.664 254.224 609.616 255.208 609.52 256.12C610.432 256.072 611.32 256.024 612.184 255.976C613.096 255.928 614.008 255.88 614.92 255.832V259H601.168V256.624C602.656 256.576 603.736 256.264 604.408 255.688C605.128 255.064 605.584 254.248 605.776 253.24C605.968 252.232 606.088 251.152 606.136 250L607.504 217.168C607.552 216.208 607.576 215.248 607.576 214.288C607.624 213.328 607.672 212.392 607.72 211.48C606.856 211.528 605.992 211.576 605.128 211.624C604.264 211.624 603.4 211.648 602.536 211.696V208.6H613.552L625.936 237.184C626.56 238.624 627.16 240.064 627.736 241.504C628.36 242.944 628.984 244.384 629.608 245.824C630.28 247.264 630.928 248.728 631.552 250.216H631.696C632.224 248.92 632.848 247.384 633.568 245.608C634.288 243.784 634.888 242.224 635.368 240.928C637.48 235.648 639.664 230.368 641.92 225.088C644.224 219.76 646.48 214.264 648.688 208.6H659.344V210.976C658.144 210.928 657.16 211.168 656.392 211.696C655.624 212.176 655.072 212.992 654.736 214.144C654.4 215.296 654.28 216.856 654.376 218.824L656.248 251.584C656.344 252.4 656.392 253.192 656.392 253.96C656.392 254.728 656.392 255.424 656.392 256.048C657.256 256 658.12 255.976 658.984 255.976C659.896 255.928 660.784 255.88 661.648 255.832V259H645.52V256.624C647.008 256.576 648.112 256.216 648.832 255.544C649.552 254.872 649.984 253.912 650.128 252.664C650.32 251.416 650.368 249.88 650.272 248.056L648.832 224.296C648.784 223.528 648.736 222.76 648.688 221.992C648.64 221.224 648.592 220.456 648.544 219.688C648.496 218.92 648.448 218.152 648.4 217.384C648.256 217.72 648.088 218.08 647.896 218.464C647.752 218.848 647.608 219.256 647.464 219.688L631.264 259.72H629.104Z" fill="white"/>
<path d="M747.344 224.564C746.891 220.303 745.395 216.993 742.856 214.636C740.363 212.279 737.144 211.1 733.2 211.1C730.797 211.1 728.531 211.621 726.4 212.664C724.315 213.661 722.479 215.112 720.892 217.016C719.305 218.92 718.059 221.209 717.152 223.884C716.245 226.559 715.792 229.573 715.792 232.928C715.792 237.189 716.608 240.952 718.24 244.216C719.872 247.48 722.071 250.019 724.836 251.832C727.601 253.645 730.661 254.552 734.016 254.552C736.963 254.552 739.864 253.895 742.72 252.58C745.576 251.22 747.911 249.271 749.724 246.732L751.492 248.16C749.543 250.835 747.435 252.897 745.168 254.348C742.901 255.799 740.635 256.773 738.368 257.272C736.147 257.816 734.107 258.088 732.248 258.088C728.848 258.088 725.72 257.476 722.864 256.252C720.053 255.028 717.605 253.328 715.52 251.152C713.48 248.931 711.893 246.369 710.76 243.468C709.672 240.521 709.128 237.348 709.128 233.948C709.128 230.729 709.604 227.601 710.556 224.564C711.553 221.527 713.027 218.784 714.976 216.336C716.925 213.888 719.373 211.939 722.32 210.488C725.312 209.037 728.78 208.312 732.724 208.312C735.263 208.312 737.665 208.652 739.932 209.332C742.199 210.012 744.375 211.055 746.46 212.46L746.12 208.788H749.792V224.564H747.344ZM728.712 274.68L728.304 272.096C729.483 271.869 730.571 271.575 731.568 271.212C732.565 270.895 733.427 270.487 734.152 269.988C734.923 269.535 735.512 269.013 735.92 268.424C736.373 267.88 736.6 267.268 736.6 266.588C736.6 265.636 736.305 265.001 735.716 264.684C735.172 264.412 734.492 264.344 733.676 264.48C732.86 264.616 732.112 264.911 731.432 265.364L728.984 264.208L730.956 256.456H734.9L733.064 262.236C733.699 261.828 734.447 261.533 735.308 261.352C736.215 261.216 736.94 261.148 737.484 261.148C739.207 261.148 740.499 261.601 741.36 262.508C742.267 263.46 742.72 264.616 742.72 265.976C742.72 267.336 742.221 268.515 741.224 269.512C740.227 270.555 738.957 271.416 737.416 272.096C735.92 272.821 734.379 273.388 732.792 273.796C731.251 274.204 729.891 274.499 728.712 274.68Z" fill="white"/>
<path d="M627.488 168.152C626.144 168.152 624.896 167.936 623.744 167.504C622.592 167.12 621.656 166.544 620.936 165.776C620.216 165.008 619.856 164.096 619.856 163.04C619.856 162.08 620.096 161.24 620.576 160.52C621.104 159.752 621.896 159.344 622.952 159.296C624.152 159.2 624.968 159.536 625.4 160.304C625.88 161.024 626.12 161.744 626.12 162.464C626.12 162.656 626.096 162.92 626.048 163.256C626 163.544 625.928 163.808 625.832 164.048C626.12 164.528 626.576 164.864 627.2 165.056C627.824 165.2 628.304 165.248 628.64 165.2C630.08 165.152 631.136 164.504 631.808 163.256C632.528 162.008 632.888 159.92 632.888 156.992V125.888C632.888 124.784 632.888 123.704 632.888 122.648C632.888 121.592 632.888 120.536 632.888 119.48C631.688 119.528 630.464 119.576 629.216 119.624C628.016 119.672 626.792 119.72 625.544 119.768V116.6H644.696V118.976C643.112 118.976 641.912 119.288 641.096 119.912C640.328 120.536 639.8 121.4 639.512 122.504C639.272 123.56 639.152 124.76 639.152 126.104V149.432C639.152 156.2 638.24 161.024 636.416 163.904C634.592 166.736 631.616 168.152 627.488 168.152Z" fill="white"/>
<path d="M790 205C790 199.477 794.477 195 800 195H959C964.523 195 969 199.477 969 205V263C969 268.523 964.523 273 959 273H800C794.477 273 790 268.523 790 263V205Z" fill="#AF0000"/>
<path d="M834.64 249.416C835.856 249.352 836.688 249.08 837.136 248.6C837.584 248.088 837.824 247.4 837.856 246.536C837.92 245.64 837.952 244.632 837.952 243.512V222.776C837.952 222.136 837.968 221.528 838 220.952C838.032 220.344 838.064 219.8 838.096 219.32C837.52 219.352 836.944 219.384 836.368 219.416C835.792 219.448 835.216 219.48 834.64 219.512V217.4L845.968 217.352C848.848 217.352 851.488 217.688 853.888 218.36C856.288 219.032 858.352 220.072 860.08 221.48C861.84 222.856 863.184 224.616 864.112 226.76C865.072 228.872 865.552 231.368 865.552 234.248C865.552 236.456 865.168 238.568 864.4 240.584C863.632 242.6 862.48 244.392 860.944 245.96C859.408 247.496 857.488 248.728 855.184 249.656C852.912 250.552 850.272 251 847.264 251H834.64V249.416ZM842.128 245.336C842.128 246.2 842.112 246.936 842.08 247.544C842.08 248.152 842.048 248.664 841.984 249.08C842.848 249.112 843.632 249.144 844.336 249.176C845.072 249.176 845.68 249.176 846.16 249.176C846.672 249.176 846.992 249.176 847.12 249.176C849.2 249.176 851.072 248.792 852.736 248.024C854.432 247.256 855.872 246.2 857.056 244.856C858.272 243.48 859.2 241.88 859.84 240.056C860.512 238.2 860.848 236.2 860.848 234.056C860.848 231.016 860.288 228.392 859.168 226.184C858.08 223.944 856.4 222.216 854.128 221C851.856 219.752 848.96 219.128 845.44 219.128C844.256 219.128 843.424 219.368 842.944 219.848C842.496 220.328 842.24 221 842.176 221.864C842.144 222.728 842.128 223.736 842.128 224.888V245.336ZM886.641 238.568C886.641 237.16 886.449 236.152 886.065 235.544C885.681 234.936 885.073 234.568 884.241 234.44C883.409 234.312 882.305 234.28 880.929 234.344L877.425 234.488V245.48C877.425 246.344 877.409 247.08 877.377 247.688C877.377 248.296 877.345 248.808 877.281 249.224L886.449 249.08C887.857 249.048 889.073 248.824 890.097 248.408C891.121 247.96 891.921 247.192 892.497 246.104C893.073 245.016 893.361 243.528 893.361 241.64H894.993L894.705 251H869.937V249.416C871.153 249.352 871.985 249.08 872.433 248.6C872.881 248.088 873.121 247.4 873.153 246.536C873.217 245.64 873.249 244.632 873.249 243.512V222.776C873.249 222.136 873.265 221.528 873.297 220.952C873.329 220.344 873.361 219.8 873.393 219.32C872.817 219.352 872.241 219.384 871.665 219.416C871.089 219.448 870.513 219.48 869.937 219.512V217.4H893.025L893.265 225.8H891.681C891.681 223.912 891.393 222.488 890.817 221.528C890.241 220.536 889.457 219.88 888.465 219.56C887.505 219.208 886.417 219.048 885.201 219.08L881.073 219.176C879.889 219.208 879.041 219.432 878.529 219.848C878.017 220.264 877.697 220.888 877.569 221.72C877.473 222.52 877.425 223.576 877.425 224.888V232.568L886.449 232.616L886.113 228.488H888.225V238.568H886.641ZM899.796 251V249.416C901.012 249.352 901.844 249.08 902.292 248.6C902.74 248.088 902.98 247.4 903.012 246.536C903.076 245.64 903.108 244.632 903.108 243.512V222.776C903.108 222.136 903.124 221.528 903.156 220.952C903.188 220.344 903.22 219.8 903.252 219.32C902.676 219.352 902.1 219.384 901.524 219.416C900.948 219.448 900.372 219.48 899.796 219.512V217.4H910.596V218.984C909.412 219.016 908.58 219.288 908.1 219.8C907.652 220.312 907.396 221 907.332 221.864C907.3 222.728 907.284 223.736 907.284 224.888V245.48C907.284 246.344 907.268 247.08 907.236 247.688C907.236 248.296 907.204 248.808 907.14 249.224L916.116 249.08C918.132 249.048 919.652 248.408 920.676 247.16C921.732 245.912 922.26 243.88 922.26 241.064H923.892L923.604 251H899.796Z" fill="white"/>
<rect x="139" y="287" width="692" height="77" rx="10" fill="#AF0000"/>
<rect x="326" y="341" width="317" height="7" fill="#D9D9D9"/>
<path d="M61.272 89.824C59.64 89.824 58.212 89.756 56.988 89.62C55.8093 89.5293 54.6533 89.212 53.52 88.668C52.432 88.1693 51.1853 87.2853 49.78 86.016C47.74 84.1573 46.0173 82.48 44.612 80.984C43.252 79.488 41.9827 78.2867 40.804 77.38C39.6253 76.5187 38.3107 76.088 36.86 76.088C32.644 75.9973 29.0173 75.2267 25.98 73.776C22.988 72.28 20.54 70.3307 18.636 67.928C16.732 65.5253 15.3267 62.8733 14.42 59.972C13.5587 57.0253 13.128 54.1013 13.128 51.2C13.128 48.344 13.604 45.4653 14.556 42.564C15.508 39.6173 16.9587 36.92 18.908 34.472C20.9027 32.024 23.3733 30.052 26.32 28.556C29.312 27.06 32.8027 26.312 36.792 26.312C40.9627 26.312 44.5667 27.06 47.604 28.556C50.6413 30.052 53.1347 32.0467 55.084 34.54C57.0787 36.988 58.552 39.6627 59.504 42.564C60.5013 45.4653 61 48.344 61 51.2C61 53.6933 60.6147 56.232 59.844 58.816C59.1187 61.3547 58.008 63.78 56.512 66.092C55.016 68.3587 53.1347 70.3307 50.868 72.008C48.6013 73.64 45.9267 74.796 42.844 75.476C43.9773 75.476 45.02 75.5667 45.972 75.748C46.9693 75.9747 47.9893 76.3827 49.032 76.972C50.0747 77.6067 51.2533 78.5587 52.568 79.828C54.1547 81.2787 55.492 82.5027 56.58 83.5C57.668 84.4973 58.5973 85.2907 59.368 85.88C60.1387 86.4693 60.8413 86.9 61.476 87.172C62.1107 87.444 62.768 87.58 63.448 87.58V89.824H61.272ZM37.472 73.3C40.2827 73.3 42.7307 72.7107 44.816 71.532C46.9013 70.308 48.624 68.6987 49.984 66.704C51.3893 64.664 52.432 62.42 53.112 59.972C53.8373 57.4787 54.2 54.9853 54.2 52.492C54.2 49.6813 53.8147 46.8933 53.044 44.128C52.2733 41.3627 51.14 38.8467 49.644 36.58C48.148 34.3133 46.2893 32.5 44.068 31.14C41.892 29.7347 39.3987 29.032 36.588 29.032C33.7773 29.032 31.3067 29.644 29.176 30.868C27.0907 32.092 25.3453 33.724 23.94 35.764C22.58 37.7587 21.5373 40.0027 20.812 42.496C20.132 44.944 19.792 47.4373 19.792 49.976C19.792 52.4693 20.132 55.076 20.812 57.796C21.5373 60.516 22.6253 63.0547 24.076 65.412C25.5267 67.7693 27.3627 69.6733 29.584 71.124C31.8053 72.5747 34.4347 73.3 37.472 73.3Z" fill="white"/>
<path d="M623.36 30.976C621.776 30.976 620.624 31.312 619.904 31.984C619.232 32.656 618.824 33.448 618.68 34.36C618.536 35.224 618.464 35.992 618.464 36.664V54.808C618.464 57.496 618.632 60.112 618.968 62.656C619.352 65.152 620.048 67.408 621.056 69.424C622.064 71.44 623.552 73.048 625.52 74.248C627.536 75.448 630.152 76.048 633.368 76.048C636.824 76.048 639.632 75.232 641.792 73.6C644 71.968 645.608 69.712 646.616 66.832C647.672 63.952 648.224 60.64 648.272 56.896L648.488 36.664C648.488 35.704 648.512 34.792 648.56 33.928C648.608 33.016 648.656 32.2 648.704 31.48C647.84 31.528 646.976 31.576 646.112 31.624C645.296 31.672 644.456 31.72 643.592 31.768V28.6H656.984V30.976C655.16 31.024 653.888 31.432 653.168 32.2C652.496 32.968 652.112 34 652.016 35.296C651.968 36.592 651.944 38.104 651.944 39.832L651.8 56.536C651.8 59.656 651.464 62.632 650.792 65.464C650.12 68.296 649.016 70.816 647.48 73.024C645.992 75.232 644 76.984 641.504 78.28C639.056 79.528 636.032 80.152 632.432 80.152C628.592 80.152 625.352 79.648 622.712 78.64C620.12 77.632 618.032 76.072 616.448 73.96C614.912 71.848 613.808 69.184 613.136 65.968C612.464 62.752 612.128 58.912 612.128 54.448V39.832C612.128 38.584 612.152 37.12 612.2 35.44C612.296 33.712 612.368 32.392 612.416 31.48C611.552 31.528 610.688 31.576 609.824 31.624C608.96 31.624 608.096 31.648 607.232 31.696V28.6H623.36V30.976Z" fill="white"/>
<path d="M214.96 166.624C216.784 166.528 218.032 166.12 218.704 165.4C219.376 164.632 219.736 163.6 219.784 162.304C219.88 160.96 219.928 159.448 219.928 157.768V126.664C219.928 125.704 219.952 124.792 220 123.928C220.048 123.016 220.096 122.2 220.144 121.48C219.28 121.528 218.416 121.576 217.552 121.624C216.688 121.672 215.824 121.72 214.96 121.768V118.6L231.952 118.528C236.272 118.528 240.232 119.032 243.832 120.04C247.432 121.048 250.528 122.608 253.12 124.72C255.76 126.784 257.776 129.424 259.168 132.64C260.608 135.808 261.328 139.552 261.328 143.872C261.328 147.184 260.752 150.352 259.6 153.376C258.448 156.4 256.72 159.088 254.416 161.44C252.112 163.744 249.232 165.592 245.776 166.984C242.368 168.328 238.408 169 233.896 169H214.96V166.624ZM226.192 160.504C226.192 161.8 226.168 162.904 226.12 163.816C226.12 164.728 226.072 165.496 225.976 166.12C227.272 166.168 228.448 166.216 229.504 166.264C230.608 166.264 231.52 166.264 232.24 166.264C233.008 166.264 233.488 166.264 233.68 166.264C236.8 166.264 239.608 165.688 242.104 164.536C244.648 163.384 246.808 161.8 248.584 159.784C250.408 157.72 251.8 155.32 252.76 152.584C253.768 149.8 254.272 146.8 254.272 143.584C254.272 139.024 253.432 135.088 251.752 131.776C250.12 128.416 247.6 125.824 244.192 124C240.784 122.128 236.44 121.192 231.16 121.192C229.384 121.192 228.136 121.552 227.416 122.272C226.744 122.992 226.36 124 226.264 125.296C226.216 126.592 226.192 128.104 226.192 129.832V160.504Z" fill="white"/>
<path d="M320.96 169V166.624C322.784 166.528 324.032 166.12 324.704 165.4C325.376 164.632 325.736 163.6 325.784 162.304C325.88 160.96 325.928 159.448 325.928 157.768V126.664C325.928 125.704 325.952 124.792 326 123.928C326.048 123.016 326.096 122.2 326.144 121.48C325.28 121.528 324.416 121.576 323.552 121.624C322.688 121.672 321.824 121.72 320.96 121.768V118.6H354.368L354.728 131.2H352.352C352.352 128.368 351.896 126.232 350.984 124.792C350.072 123.304 348.872 122.32 347.384 121.84C345.896 121.312 344.24 121.072 342.416 121.12L337.16 121.264C335.384 121.312 334.16 121.744 333.488 122.56C332.816 123.328 332.432 124.36 332.336 125.656C332.24 126.952 332.192 128.44 332.192 130.12V142.504L344.72 142.576L344.216 136.312H347.384V151.504H345.08C345.08 149.344 344.768 147.808 344.144 146.896C343.568 145.984 342.656 145.432 341.408 145.24C340.16 145.048 338.528 145 336.512 145.096L332.192 145.312V160.432C332.192 161.728 332.168 162.856 332.12 163.816C332.12 164.728 332.072 165.496 331.976 166.12C332.792 166.072 333.608 166.048 334.424 166.048C335.24 166 336.056 165.952 336.872 165.904C337.688 165.856 338.504 165.832 339.32 165.832V169H320.96Z" fill="white"/>
<path d="M434.864 170.152C430.064 170.152 425.816 169.144 422.12 167.128C418.424 165.112 415.544 162.208 413.48 158.416C411.416 154.624 410.384 150.112 410.384 144.88C410.384 141.472 410.888 138.16 411.896 134.944C412.952 131.68 414.512 128.728 416.576 126.088C418.688 123.448 421.304 121.36 424.424 119.824C427.592 118.24 431.264 117.448 435.44 117.448C437.168 117.448 438.92 117.616 440.696 117.952C442.472 118.24 444.176 118.696 445.808 119.32C447.488 119.896 449 120.592 450.344 121.408L450.056 117.952H454.016V134.44H451.424C451.232 131.416 450.416 128.872 448.976 126.808C447.584 124.696 445.76 123.088 443.504 121.984C441.248 120.88 438.728 120.328 435.944 120.328C433.4 120.328 431 120.904 428.744 122.056C426.536 123.16 424.568 124.744 422.84 126.808C421.16 128.824 419.84 131.224 418.88 134.008C417.92 136.792 417.44 139.864 417.44 143.224C417.44 147.736 418.256 151.768 419.888 155.32C421.52 158.872 423.776 161.656 426.656 163.672C429.584 165.688 432.944 166.696 436.736 166.696C438.032 166.696 439.376 166.576 440.768 166.336C442.208 166.096 443.624 165.712 445.016 165.184C446.456 164.608 447.8 163.912 449.048 163.096V154.312C449.048 153.16 449.048 152.008 449.048 150.856C449.048 149.656 449.048 148.48 449.048 147.328C448.232 147.376 447.392 147.424 446.528 147.472C445.664 147.52 444.824 147.568 444.008 147.616V144.448H460.28V146.824C458.936 146.824 457.904 147.184 457.184 147.904C456.464 148.576 455.96 149.416 455.672 150.424C455.384 151.384 455.216 152.344 455.168 153.304C455.12 154.216 455.096 154.912 455.096 155.392V166.408H453.152C452.384 166.408 451.328 166.552 449.984 166.84C448.64 167.128 447.104 167.608 445.376 168.28C443.888 168.856 442.16 169.312 440.192 169.648C438.224 169.984 436.448 170.152 434.864 170.152Z" fill="white"/>
<path d="M509.96 169V166.624C511.784 166.528 513.032 166.12 513.704 165.4C514.376 164.632 514.736 163.6 514.784 162.304C514.88 160.96 514.928 159.448 514.928 157.768V126.664C514.928 125.704 514.952 124.792 515 123.928C515.048 123.016 515.096 122.2 515.144 121.48C514.28 121.528 513.416 121.576 512.552 121.624C511.688 121.672 510.824 121.72 509.96 121.768V118.6H526.16V120.976C524.384 121.024 523.136 121.432 522.416 122.2C521.744 122.968 521.36 124 521.264 125.296C521.216 126.592 521.192 128.104 521.192 129.832V141.784H546.968V126.664C546.968 125.704 546.992 124.792 547.04 123.928C547.088 123.016 547.136 122.2 547.184 121.48C546.32 121.528 545.456 121.576 544.592 121.624C543.728 121.672 542.864 121.72 542 121.768V118.6H558.2V120.976C556.424 121.024 555.176 121.432 554.456 122.2C553.784 122.968 553.4 124 553.304 125.296C553.256 126.592 553.232 128.104 553.232 129.832V160.432C553.232 161.728 553.208 162.856 553.16 163.816C553.16 164.728 553.112 165.496 553.016 166.12C553.88 166.072 554.744 166.024 555.608 165.976C556.472 165.928 557.336 165.88 558.2 165.832V169H542V166.624C543.824 166.528 545.072 166.12 545.744 165.4C546.416 164.632 546.776 163.6 546.824 162.304C546.92 160.96 546.968 159.448 546.968 157.768V144.664L521.192 144.952V160.432C521.192 161.728 521.168 162.856 521.12 163.816C521.12 164.728 521.072 165.496 520.976 166.12C521.84 166.072 522.704 166.024 523.568 165.976C524.432 165.928 525.296 165.88 526.16 165.832V169H509.96Z" fill="white"/>
<path d="M117.864 259V256.624C120.168 256.144 121.968 255.184 123.264 253.744C124.608 252.256 126.096 250.336 127.728 247.984L137.088 234.592C133.776 229.936 131.184 226.312 129.312 223.72C127.44 221.08 125.976 219.016 124.92 217.528C124.008 216.136 123.312 215.032 122.832 214.216C122.4 213.4 121.992 212.536 121.608 211.624C120.984 211.672 120.336 211.696 119.664 211.696C118.992 211.696 118.32 211.72 117.648 211.768V208.6H136.296V210.976L133.128 211.12C131.4 211.168 130.344 211.504 129.96 212.128C129.624 212.704 129.648 213.424 130.032 214.288C130.464 215.152 130.944 216.04 131.472 216.952C132.336 218.392 133.56 220.264 135.144 222.568C136.776 224.824 138.528 227.248 140.4 229.84L147.312 219.832C148.56 218.104 149.736 216.448 150.84 214.864C151.992 213.28 152.952 212.152 153.72 211.48C152.712 211.528 151.704 211.576 150.696 211.624C149.688 211.672 148.68 211.72 147.672 211.768V208.6H161.856V210.976C160.32 211.168 158.88 211.792 157.536 212.848C156.192 213.904 154.944 215.176 153.792 216.664C152.64 218.104 151.56 219.544 150.552 220.984L142.416 232.504C144.144 234.808 145.824 237.064 147.456 239.272C149.136 241.432 150.648 243.4 151.992 245.176C153.336 246.904 154.368 248.272 155.088 249.28C155.904 250.384 156.72 251.512 157.536 252.664C158.4 253.768 159.24 254.872 160.056 255.976C160.728 255.928 161.424 255.904 162.144 255.904C162.864 255.904 163.56 255.88 164.232 255.832V259H146.592V256.624C148.464 256.672 149.688 256.432 150.264 255.904C150.84 255.328 151.008 254.632 150.768 253.816C150.576 252.952 150.192 252.136 149.616 251.368C148.512 249.88 147.024 247.96 145.152 245.608C143.28 243.208 141.24 240.472 139.032 237.4C137.832 239.128 136.632 240.88 135.432 242.656C134.28 244.384 133.104 246.16 131.904 247.984C131.04 249.28 130.128 250.624 129.168 252.016C128.256 253.408 127.2 254.8 126 256.192C127.008 256.096 127.992 256.024 128.952 255.976C129.96 255.928 130.968 255.88 131.976 255.832V259H117.864Z" fill="white"/>
<path d="M258.776 224.656C258.296 220.144 256.712 216.64 254.024 214.144C251.384 211.648 247.976 210.4 243.8 210.4C241.256 210.4 238.856 210.952 236.6 212.056C234.392 213.112 232.448 214.648 230.768 216.664C229.088 218.68 227.768 221.104 226.808 223.936C225.848 226.768 225.368 229.96 225.368 233.512C225.368 238.024 226.232 242.008 227.96 245.464C229.688 248.92 232.016 251.608 234.944 253.528C237.872 255.448 241.112 256.408 244.664 256.408C247.784 256.408 250.856 255.712 253.88 254.32C256.904 252.88 259.376 250.816 261.296 248.128L263.168 249.64C261.104 252.472 258.872 254.656 256.472 256.192C254.072 257.728 251.672 258.76 249.272 259.288C246.92 259.864 244.76 260.152 242.792 260.152C239.192 260.152 235.88 259.504 232.856 258.208C229.88 256.912 227.288 255.112 225.08 252.808C222.92 250.456 221.24 247.744 220.04 244.672C218.888 241.552 218.312 238.192 218.312 234.592C218.312 231.184 218.816 227.872 219.824 224.656C220.88 221.44 222.44 218.536 224.504 215.944C226.568 213.352 229.16 211.288 232.28 209.752C235.448 208.216 239.12 207.448 243.296 207.448C245.984 207.448 248.528 207.808 250.928 208.528C253.328 209.248 255.632 210.352 257.84 211.84L257.48 207.952H261.368V224.656H258.776Z" fill="white"/>
<path d="M337.184 259.72L320.84 221.416C319.784 218.968 319.04 217 318.608 215.512C318.176 213.976 317.888 212.68 317.744 211.624C317.072 211.672 316.4 211.696 315.728 211.696C315.056 211.696 314.384 211.72 313.712 211.768V208.6H330.416L330.344 211.048C327.944 211.192 326.504 211.936 326.024 213.28C325.544 214.576 325.784 216.424 326.744 218.824C327.896 221.656 329 224.392 330.056 227.032C331.112 229.672 332.288 232.528 333.584 235.6C334.736 238.288 335.84 240.88 336.896 243.376C338 245.824 338.84 247.864 339.416 249.496H339.56C340.088 247.816 340.616 246.208 341.144 244.672C341.72 243.136 342.392 241.312 343.16 239.2C344.6 235.168 345.8 231.76 346.76 228.976C347.768 226.192 348.632 223.816 349.352 221.848C350.072 219.88 350.672 218.2 351.152 216.808C351.584 215.56 351.968 214.504 352.304 213.64C352.64 212.776 352.952 212.056 353.24 211.48C352.328 211.528 351.416 211.576 350.504 211.624C349.592 211.672 348.656 211.72 347.696 211.768V208.6H362.312V210.976C360.2 211.072 358.568 211.624 357.416 212.632C356.312 213.64 355.304 215.44 354.392 218.032C354.296 218.272 354.176 218.608 354.032 219.04C353.888 219.424 353.648 220.072 353.312 220.984C352.976 221.896 352.496 223.24 351.872 225.016C351.248 226.744 350.384 229.096 349.28 232.072C348.224 235.048 346.856 238.792 345.176 243.304C343.544 247.816 341.552 253.288 339.2 259.72H337.184Z" fill="white"/>
<path d="M549.344 260.152L520.616 221.56C520.184 220.984 519.752 220.432 519.32 219.904C518.936 219.328 518.528 218.752 518.096 218.176H518.024L518.24 248.992C518.24 250.192 518.24 251.392 518.24 252.592C518.24 253.792 518.192 254.968 518.096 256.12C518.96 256.072 519.824 256.024 520.688 255.976C521.552 255.928 522.416 255.88 523.28 255.832V259H510.104V256.624C511.592 256.624 512.648 256.312 513.272 255.688C513.944 255.016 514.376 254.248 514.568 253.384C514.76 252.472 514.856 251.656 514.856 250.936L514.928 216.304C514.928 215.488 514.928 214.672 514.928 213.856C514.928 213.04 514.928 212.248 514.928 211.48C514.16 211.528 513.368 211.576 512.552 211.624C511.736 211.672 510.92 211.72 510.104 211.768V208.6H518.672L545.672 244.744C546.296 245.56 546.896 246.376 547.472 247.192C548.096 248.008 548.72 248.824 549.344 249.64H549.416L549.488 216.664C549.488 215.704 549.512 214.792 549.56 213.928C549.608 213.016 549.656 212.2 549.704 211.48C548.84 211.528 547.976 211.576 547.112 211.624C546.248 211.672 545.384 211.72 544.52 211.768V208.6H557.768V210.976C555.992 211.024 554.768 211.432 554.096 212.2C553.424 212.968 553.064 214 553.016 215.296C552.968 216.592 552.944 218.104 552.944 219.832L552.8 260.152H549.344Z" fill="white"/>
</svg>
